<?xml version="1.0" encoding="iso-8859-1"?>
<!-- Generator: Adobe Illustrator 19.0.0, SVG Export Plug-In . SVG Version: 6.00 Build 0)  -->
<svg xmlns="http://www.w3.org/2000/svg" xmlns:xlink="http://www.w3.org/1999/xlink" version="1.1" id="Capa_1" x="0px" y="0px" viewBox="0 0 512.001 512.001" style="enable-background:new 0 0 512.001 512.001;" xml:space="preserve" width="512px" height="512px">
<g>
	<g>
		<path d="M352.181,355.493c9.98,14.847,37.546,48.761,65.419,61.406c6.195-11.58,11.182-23.891,14.788-36.765    c-53.223-21.428-67.974-81.603-79.932-130.397c-3.644-14.87-7.087-28.914-11.262-40.928    c-11.915-34.285-20.578-51.906-40.418-65.691c-21.913-15.23-60.362-17.762-80.503,2.957    c-13.334,13.728-19.339,35.979-25.147,57.498c-2.961,10.971-6.023,22.316-10.088,32.767    c-18.9,48.588-62.352,84.118-112.152,92.485v2.24c0,12.727,1.32,25.161,3.823,37.174    c97.604-32.402,126.691-79.137,133.757-113.013c11.06-53.029,29.583-81.67,55.057-85.128c18.873-2.558,34.418,10.094,41.46,23.772    c1.983,3.851,12.139,24.654,17.253,55.939c5.672,34.7,3.107,68.516-7.625,100.511c-19.783,58.978-66.121,108.241-137.825,146.664    c15.338,7.193,31.814,12.325,49.072,15.017c13.044-8.093,28.685-19.05,37.148-29.077l11.064-13.107l11.569,12.664    c0.143,0.156,11.47,12.422,25.697,22.44c13.447-4.467,26.216-10.455,38.097-17.764c-40.646-22.6-60.63-57.182-61.708-59.09    l13.112-7.415l13.089-7.457c0.242,0.422,21.185,36.153,62.617,53.638c8.242-7.45,15.802-15.638,22.587-24.452    c-13.488-6.817-27.355-17.273-41.503-31.332c-19.196-19.075-31.936-37.982-32.469-38.778l12.515-8.384L352.181,355.493z" fill="#FFFFFF"/>
	</g>
</g>
<g>
	<g>
		<path d="M401.635,209.109C381.17,116.091,326.712,62.794,255.906,66.538c-83.164,4.394-110.822,71.952-119.908,111.833    c-12.132,53.268-48.897,73.704-63.113,79.745v40.058c37.371-8.074,69.632-35.631,84.074-72.757    c3.479-8.942,6.198-19.022,9.078-29.694c6.49-24.051,13.847-51.31,32.627-70.644c14.472-14.888,35.341-23.459,58.766-24.139    c21.641-0.624,43.692,5.728,60.537,17.437c28.935,20.104,40.099,47.203,51.685,80.541c4.641,13.354,8.247,28.068,12.065,43.646    c10.761,43.908,21.863,89.166,56.456,107.081c0.623-6.113,0.943-12.312,0.943-18.582v-34.736    C422.515,276.797,410.241,248.227,401.635,209.109z" fill="#FFFFFF"/>
	</g>
</g>
<g>
	<g>
		<path d="M280.196,207.661c-2.118-4.115-6.784-8.235-10.622-7.709c-6.424,0.872-19.89,14.79-29.617,61.425    c-8.361,40.092-34.807,74.242-78.601,101.502c-29.42,18.312-59.219,28.841-76.051,34.283c4.294,11.003,9.625,21.495,15.871,31.359    c8.201-2.504,29.113-9.792,53.171-25.144c40.961-26.138,71.278-62.114,90.107-106.931l27.776,11.67    c-26.688,63.52-70.623,101.056-102.78,121.359c-19.511,12.319-37.091,19.95-49.03,24.342c8.368,9.229,17.664,17.6,27.728,24.979    c74.149-35.939,121.222-82.379,139.898-138.058C311.709,270.191,281.494,210.181,280.196,207.661z" fill="#FFFFFF"/>
	</g>
</g>
<g>
	<g>
		<path d="M256.001,0C155.288,0,72.886,82.402,72.886,183.115v40.792c11.673-8.018,27.227-23.641,33.738-52.227    c5.605-24.605,17.829-59.929,44.235-88.489c26.621-28.793,61.429-44.518,103.457-46.738c42.914-2.273,82.04,12.3,113.14,42.137    c30.112,28.89,52.106,71.785,63.602,124.046c2.489,11.313,5.199,21.186,8.058,29.83v-49.351C439.116,82.402,356.715,0,256.001,0z" fill="#FFFFFF"/>
	</g>
</g>
<g>
</g>
<g>
</g>
<g>
</g>
<g>
</g>
<g>
</g>
<g>
</g>
<g>
</g>
<g>
</g>
<g>
</g>
<g>
</g>
<g>
</g>
<g>
</g>
<g>
</g>
<g>
</g>
<g>
</g>
</svg>
