<svg 
  xmlns:dc="http://purl.org/dc/elements/1.1/" 
  xmlns:cc="http://creativecommons.org/ns#" 
  xmlns:rdf="http://www.w3.org/1999/02/22-rdf-syntax-ns#" 
  xmlns:svg="http://www.w3.org/2000/svg" 
  xmlns="http://www.w3.org/2000/svg" 
  xmlns:sodipodi="http://sodipodi.sourceforge.net/DTD/sodipodi-0.dtd" 
  xmlns:inkscape="http://www.inkscape.org/namespaces/inkscape" version="1.1" x="0px" y="0px" viewBox="0 0 100 100">
  <g transform="translate(0,-952.36218)">
    <path style="text-indent:0;text-transform:none;direction:ltr;block-progression:tb;baseline-shift:baseline;color:#FFFFFF;enable-background:accumulate;" d="m 7.9938353,1006.8143 a 1.0001,1.0001 0 0 0 -0.86,1.5004 c 0,0 3.5067997,6.0629 10.9674997,10.7475 7.4605,4.6844 18.9691,8.0019 34.712197,2.7446 0,-2e-4 10e-4,-4e-4 0.002,-6e-4 12.3907,-4.1118 20.7938,-5.2157 26.73,-5.0937 5.9364,0.122 9.3896,1.4443 12.1431,2.3469 a 1.0001,1.0001 0 0 0 0.9816,-1.6928 c -6.5632,-5.9224 -13.0051,-8.3487 -19.4275,-8.8807 -6.4225,-0.5319 -12.796,0.7821 -19.4154,2.1741 -13.238697,2.7839 -27.402797,5.9551 -45.3527967,-3.7259 a 1.0001,1.0001 0 0 0 -0.4803,-0.1197 z" fill="#FFFFFF" fill-opacity="1" fill-rule="evenodd" stroke="none" marker="none" visibility="visible" display="inline" overflow="visible"/>
    <path style="text-indent:0;text-transform:none;direction:ltr;block-progression:tb;baseline-shift:baseline;color:#FFFFFF;enable-background:accumulate;" d="m 42.961335,980.23778 c -0.5537,0.01 -1.1389,0.0851 -1.7522,0.23968 a 1.0001,1.0001 0 0 0 -0.001,0 c -2.2622,0.57231 -6.3162,2.18815 -10.7009,4.09563 -4.3848,1.90747 -9.0374,4.09522 -12.275,5.78219 a 1.0001,1.0001 0 0 0 -10e-4,6e-4 c -1.3932,0.72727 -2.3491,1.65664 -2.8587,2.69 -0.5096,1.03335 -0.5414,2.1747 -0.1216,3.12187 0.8396,1.89434 3.3105,2.80902 6.0294,1.86656 8.5143,-2.95142 13.3824,-4.78021 18.2997,-6.36968 10e-4,-2e-4 0.0012,-4e-4 0.0019,-6e-4 1.4237,-0.45704 1.8501,-0.32446 1.8312,-0.33594 -0.0094,-0.006 0.0165,0 0.1031,0.16875 0.0845,0.16446 0.1982,0.45238 0.375,0.79812 0.5379,1.1201 0.8165,1.69533 1.0119,2.08969 -5.5018,4.22427 -9.9823,7.38545 -16.1394,11.83965 a 1.0001,1.0001 0 0 0 0.3522,1.7825 c 0,0 7.7485,1.8777 16.5825,0.016 8.610497,-1.8142 10.035197,-2.4505 17.471597,-3.395 a 1.0001,1.0001 0 0 0 0.0369,0 c 0.2527,-0.042 0.6129,-0.097 1.0103,-0.2612 0.3973,-0.1647 0.8868,-0.4891 1.1293,-1.0609 0.2426,-0.5719 0.1725,-1.2304 -0.0871,-1.8769 -0.2597,-0.6465 -0.7102,-1.3491 -1.4213,-2.21878 a 1.0001,1.0001 0 0 0 -0.001,-10e-4 c -1.348,-1.6435 -4.3227,-5.2425 -7.0994,-8.6125 -2.7767,-3.37 -5.3971,-6.56622 -5.8831,-7.2025 a 1.0001,1.0001 0 0 0 -0.005,-0.006 c -0.595597,-0.76722 -1.466597,-1.7424 -2.734397,-2.41157 -0.8716,-0.46005 -1.9366,-0.75492 -3.1547,-0.73343 z" fill="#FFFFFF" fill-opacity="1" fill-rule="evenodd" stroke="none" marker="none" visibility="visible" display="inline" overflow="visible"/>
    <path style="text-indent:0;text-transform:none;direction:ltr;block-progression:tb;baseline-shift:baseline;color:#FFFFFF;enable-background:accumulate;" d="m 73.148832,980.59715 c -5.388,0 -9.7859,4.38755 -9.7859,9.78563 0,5.38919 4.3966,9.78562 9.7859,9.78562 5.3982,0 9.7857,-4.3978 9.7857,-9.78562 0,-5.39671 -4.3889,-9.78563 -9.7857,-9.78563 z" fill="#FFFFFF" fill-opacity="1" fill-rule="evenodd" stroke="none" marker="none" visibility="visible" display="inline" overflow="visible"/>
  </g>
</svg>